<?xml version="1.0" standalone="no"?><!DOCTYPE svg PUBLIC "-//W3C//DTD SVG 1.1//EN" "http://www.w3.org/Graphics/SVG/1.1/DTD/svg11.dtd"><svg t="1598498804643" class="icon" viewBox="0 0 1024 1024" version="1.1" xmlns="http://www.w3.org/2000/svg" p-id="4255" xmlns:xlink="http://www.w3.org/1999/xlink" width="200" height="200"><defs><style type="text/css"></style></defs><path d="M828 844H209.6c-16 0-32-8-42.4-20l-0.8-0.8c-10.4-14.4-13.6-31.2-9.6-46.4 32.8-166.4 170.4-292.8 334.4-306.4 4-0.8 7.2-1.6 10.4-1.6h30.4l-4 40h-16c-6.4 0-9.6 0-14.4 1.6h-2.4c-148 10.4-272 124-300.8 275.2-0.8 4-0.8 9.6 3.2 13.6l0.8 1.6c2.4 3.2 6.4 4.8 11.2 4.8h619.2c4.8 0 8.8-1.6 11.2-4.8 4-4.8 4.8-9.6 4-15.2-18.4-99.2-78.4-183.2-163.2-231.2l-0.8-0.8c-6.4-4-14.4-8-21.6-12-2.4-1.6-4.8-2.4-7.2-4l-11.2-4.8 16-36 11.2 4.8c8 3.2 16 8 23.2 11.2l9.6 4.8c96 54.4 162.4 148.8 184 259.2 4 16 0 32.8-12 47.2-11.2 12.8-28 20-44 20z" p-id="4256"></path><path d="M523.2 496.8c-100.8 0-184-83.2-184-184s83.2-184 184-184 184 83.2 184 184-84 184-184 184z m0-339.2C436.8 157.6 368 227.2 368 312.8s69.6 155.2 155.2 155.2 155.2-69.6 155.2-155.2-69.6-155.2-155.2-155.2z" p-id="4257"></path><path d="M523.2 500.8c-104 0-188-84-188-188s84-188 188-188 188 84 188 188-84.8 188-188 188z m0-368c-99.2 0-180 80.8-180 180S424 492.8 523.2 492.8s180-80.8 180-180-80.8-180-180-180z m0 339.2c-88 0-159.2-71.2-159.2-159.2s71.2-159.2 159.2-159.2c88 0 159.2 71.2 159.2 159.2S610.4 472 523.2 472z m0-310.4c-83.2 0-151.2 68-151.2 151.2C372 396 440 464 523.2 464s151.2-68 151.2-151.2c0-83.2-68-151.2-151.2-151.2zM277.6 711.2c-1.6 0-4-0.8-5.6-1.6-5.6-3.2-8-10.4-4.8-16 70.4-136.8 223.2-162.4 229.6-163.2 6.4-0.8 12.8 3.2 13.6 9.6 0.8 6.4-3.2 12.8-9.6 13.6-1.6 0-147.2 24.8-212 150.4-2.4 4.8-6.4 7.2-11.2 7.2zM250.4 780.8c-6.4 0-12-5.6-12-12 0-23.2 15.2-48 17.6-50.4 3.2-5.6 11.2-7.2 16.8-4 5.6 3.2 7.2 11.2 4 16.8-4 5.6-13.6 24-13.6 37.6-0.8 6.4-5.6 12-12.8 12z" p-id="4258"></path></svg>