<?xml version="1.0" standalone="no"?><!DOCTYPE svg PUBLIC "-//W3C//DTD SVG 1.1//EN" "http://www.w3.org/Graphics/SVG/1.1/DTD/svg11.dtd"><svg t="1598498778887" class="icon" viewBox="0 0 1024 1024" version="1.1" xmlns="http://www.w3.org/2000/svg" p-id="4126" xmlns:xlink="http://www.w3.org/1999/xlink" width="200" height="200"><defs><style type="text/css"></style></defs><path d="M849.06666667 866.13333333H189.44c-17.06666667 0-34.13333333-8.53333333-45.22666667-21.33333333l-0.85333333-0.85333333c-11.09333333-15.36-14.50666667-33.28-10.24-49.49333334 34.98666667-177.49333333 181.76-312.32 356.69333333-326.82666666 4.26666667-0.85333333 7.68-1.70666667 11.09333334-1.70666667h32.42666666l-4.26666666 42.66666667h-17.06666667c-6.82666667 0-10.24 0-15.36 1.70666666h-2.56c-157.86666667 11.09333333-290.13333333 132.26666667-320.85333333 293.54666667-0.85333333 4.26666667-0.85333333 10.24 3.41333333 14.50666667l0.85333333 1.70666666c2.56 3.41333333 6.82666667 5.12 11.94666667 5.12h660.48c5.12 0 9.38666667-1.70666667 11.94666667-5.12 4.26666667-5.12 5.12-10.24 4.26666666-16.21333333-19.62666667-105.81333333-83.62666667-195.41333333-174.08-246.61333333l-0.85333333-0.85333334c-6.82666667-4.26666667-15.36-8.53333333-23.04-12.8-2.56-1.70666667-5.12-2.56-7.68-4.26666666l-11.94666667-5.12 17.06666667-38.4 11.94666667 5.12c8.53333333 3.41333333 17.06666667 8.53333333 24.74666666 11.94666666l10.24 5.12c102.4 58.02666667 173.22666667 158.72 196.26666667 276.48 4.26666667 17.06666667 0 34.98666667-12.8 50.34666667-11.94666667 13.65333333-29.86666667 21.33333333-46.93333333 21.33333333z" fill="#FF4040" p-id="4127"></path><path d="M523.94666667 495.78666667c-107.52 0-196.26666667-88.74666667-196.26666667-196.26666667s88.74666667-196.26666667 196.26666667-196.26666667 196.26666667 88.74666667 196.26666666 196.26666667-89.6 196.26666667-196.26666666 196.26666667z m0-361.81333334C431.78666667 133.97333333 358.4 208.21333333 358.4 299.52s74.24 165.54666667 165.54666667 165.54666667 165.54666667-74.24 165.54666666-165.54666667-74.24-165.54666667-165.54666666-165.54666667z" fill="#FF4040" p-id="4128"></path><path d="M523.94666667 500.05333333c-110.93333333 0-200.53333333-89.6-200.53333334-200.53333333s89.6-200.53333333 200.53333334-200.53333333 200.53333333 89.6 200.53333333 200.53333333-90.45333333 200.53333333-200.53333333 200.53333333z m0-392.53333333c-105.81333333 0-192 86.18666667-192 192S418.13333333 491.52 523.94666667 491.52s192-86.18666667 192-192-86.18666667-192-192-192z m0 361.81333333c-93.86666667 0-169.81333333-75.94666667-169.81333334-169.81333333s75.94666667-169.81333333 169.81333334-169.81333333c93.86666667 0 169.81333333 75.94666667 169.81333333 169.81333333S616.96 469.33333333 523.94666667 469.33333333z m0-331.09333333c-88.74666667 0-161.28 72.53333333-161.28 161.28C362.66666667 388.26666667 435.2 460.8 523.94666667 460.8s161.28-72.53333333 161.28-161.28c0-88.74666667-72.53333333-161.28-161.28-161.28zM261.97333333 724.48c-1.70666667 0-4.26666667-0.85333333-5.97333333-1.70666667-5.97333333-3.41333333-8.53333333-11.09333333-5.12-17.06666666 75.09333333-145.92 238.08-173.22666667 244.90666667-174.08 6.82666667-0.85333333 13.65333333 3.41333333 14.50666666 10.24 0.85333333 6.82666667-3.41333333 13.65333333-10.24 14.50666666-1.70666667 0-157.01333333 26.45333333-226.13333333 160.42666667-2.56 5.12-6.82666667 7.68-11.94666667 7.68zM232.96 798.72c-6.82666667 0-12.8-5.97333333-12.8-12.8 0-24.74666667 16.21333333-51.2 18.77333333-53.76 3.41333333-5.97333333 11.94666667-7.68 17.92-4.26666667 5.97333333 3.41333333 7.68 11.94666667 4.26666667 17.92-4.26666667 5.97333333-14.50666667 25.6-14.50666667 40.10666667-0.85333333 6.82666667-5.97333333 12.8-13.65333333 12.8z" fill="#FF4040" p-id="4129"></path></svg>