<?xml version="1.0" standalone="no"?><!DOCTYPE svg PUBLIC "-//W3C//DTD SVG 1.1//EN" "http://www.w3.org/Graphics/SVG/1.1/DTD/svg11.dtd"><svg t="1598498832509" class="icon" viewBox="0 0 1024 1024" version="1.1" xmlns="http://www.w3.org/2000/svg" p-id="4979" xmlns:xlink="http://www.w3.org/1999/xlink" width="200" height="200"><defs><style type="text/css"></style></defs><path d="M562.80499999 80.6975a72.135 72.135 0 0 0-96.92999998 0L73.925 452.87a36.15749997 36.15749997 0 0 0 48.42 53.70749999l6.2325-5.91749998V889.09999999a72.315 72.315 0 0 0 72.315 72.40500001h210.4425v-217.70999999a50.91750001 50.91750001 0 0 1 50.94-50.98500001h99.0225a50.91750001 50.91750001 0 0 1 50.94 50.98500001v217.70999999h215.4375a72.315 72.315 0 0 0 72.3375-72.40500001V505.4075c16.065 14.535 38.8575 13.4325 52.22249999-1.46249999a36.15749997 36.15749997 0 0 0-2.60999999-51.07500001L562.80499999 80.72z" fill="#d81e06" p-id="4980"></path></svg>